<mxfile host="app.diagrams.net" modified="2023-11-06T22:24:52.391Z" agent="Mozilla/5.0 (Macintosh; Intel Mac OS X 10_15_7) AppleWebKit/605.1.15 (KHTML, like Gecko) Version/17.0 Safari/605.1.15" etag="upJWmSjW4ImdRLndkudV" version="22.0.8" type="device">
  <diagram name="Page-1" id="roQ65vm2jonwFZiY3TUa">
    <mxGraphModel dx="2280" dy="1600" grid="1" gridSize="10" guides="1" tooltips="1" connect="1" arrows="1" fold="1" page="1" pageScale="1" pageWidth="1920" pageHeight="1200" math="0" shadow="0">
      <root>
        <mxCell id="0" />
        <mxCell id="1" parent="0" />
        <mxCell id="3iToGneiW7miWbt9xXyB-2" value="&lt;font style=&quot;font-size: 42px;&quot;&gt;TIM Use Cases and Functions&lt;/font&gt;" style="text;strokeColor=none;align=center;fillColor=none;html=1;verticalAlign=middle;whiteSpace=wrap;rounded=0;fontStyle=1" vertex="1" parent="1">
          <mxGeometry x="30" y="25.35" width="640" height="50" as="geometry" />
        </mxCell>
        <mxCell id="3iToGneiW7miWbt9xXyB-3" value="&lt;font style=&quot;font-size: 32px;&quot;&gt;&lt;b&gt;OHMS.xml&lt;br&gt;Indexers&lt;/b&gt;&lt;br&gt;&lt;/font&gt;" style="shape=actor;whiteSpace=wrap;html=1;fillColor=#dae8fc;strokeColor=#6c8ebf;strokeWidth=2;verticalAlign=bottom;spacingBottom=44;" vertex="1" parent="1">
          <mxGeometry x="50" y="120" width="250" height="300" as="geometry" />
        </mxCell>
        <mxCell id="3iToGneiW7miWbt9xXyB-8" value="&lt;p style=&quot;margin: 0px; font-style: normal; font-variant-caps: normal; font-stretch: normal; line-height: normal; font-size-adjust: none; font-kerning: auto; font-variant-alternates: normal; font-variant-ligatures: normal; font-variant-numeric: normal; font-variant-east-asian: normal; font-variant-position: normal; font-feature-settings: normal; font-optical-sizing: auto; font-variation-settings: normal; font-size: 28px;&quot;&gt;&lt;b&gt;OHMS.xml Indexers&lt;/b&gt; curate electronic timecode-linked indexes for display in one of two multimedia environments, OHMS or Aviary. OHMS formats are optimized for oral history content.&lt;/p&gt;" style="rounded=1;whiteSpace=wrap;html=1;fontSize=28;spacing=12;" vertex="1" parent="1">
          <mxGeometry x="50" y="440" width="760" height="180" as="geometry" />
        </mxCell>
        <mxCell id="3iToGneiW7miWbt9xXyB-9" value="&lt;p style=&quot;margin: 0px; font-style: normal; font-variant-caps: normal; font-stretch: normal; line-height: normal; font-size-adjust: none; font-kerning: auto; font-variant-alternates: normal; font-variant-ligatures: normal; font-variant-numeric: normal; font-variant-east-asian: normal; font-variant-position: normal; font-feature-settings: normal; font-optical-sizing: auto; font-variation-settings: normal; font-size: 28px;&quot;&gt;&lt;b&gt;ASR transcript editors&lt;/b&gt; use TIM as an editing environment for traditional transcripts, particularly those that include embedded timecodes; TIM is an ideal environment for refining transcripts made through automatic speech recognition (ASR)&lt;/p&gt;" style="rounded=1;whiteSpace=wrap;html=1;fontSize=28;spacing=12;" vertex="1" parent="1">
          <mxGeometry x="50" y="990" width="760" height="180" as="geometry" />
        </mxCell>
        <mxCell id="3iToGneiW7miWbt9xXyB-10" value="&lt;p style=&quot;margin: 0px; font-style: normal; font-variant-caps: normal; font-stretch: normal; line-height: normal; font-size-adjust: none; font-kerning: auto; font-variant-alternates: normal; font-variant-ligatures: normal; font-variant-numeric: normal; font-variant-east-asian: normal; font-variant-position: normal; font-feature-settings: normal; font-optical-sizing: auto; font-variation-settings: normal; font-size: 28px;&quot;&gt;&lt;b&gt;Real-time notetakers&lt;/b&gt; mark timecodes and take informal notes during live events in TIM. Raw notes can be viewed in TIM or formulated into meeting minutes, indexes, or other timecode-enhanced exports, aided by post-event transcripts.&lt;/p&gt;" style="rounded=1;whiteSpace=wrap;html=1;fontSize=28;spacing=26;" vertex="1" parent="1">
          <mxGeometry x="960" y="440" width="760" height="180" as="geometry" />
        </mxCell>
        <mxCell id="3iToGneiW7miWbt9xXyB-11" value="&lt;p style=&quot;margin: 0px; font-style: normal; font-variant-caps: normal; font-stretch: normal; line-height: normal; font-size-adjust: none; font-kerning: auto; font-variant-alternates: normal; font-variant-ligatures: normal; font-variant-numeric: normal; font-variant-east-asian: normal; font-variant-position: normal; font-feature-settings: normal; font-optical-sizing: auto; font-variation-settings: normal; font-size: 28px;&quot;&gt;&lt;b&gt;Timecode slingers&lt;/b&gt; need to aurally and visually proof the timecodes in a free-standing text file. &lt;b&gt;WebVTT files can easily be checked or adjusted&lt;/b&gt;, as can any document with timecodes-in-text as long as it can be copy/pasted into TIM.&lt;/p&gt;" style="rounded=1;whiteSpace=wrap;html=1;fontSize=28;spacing=12;" vertex="1" parent="1">
          <mxGeometry x="960" y="990" width="760" height="180" as="geometry" />
        </mxCell>
        <mxCell id="3iToGneiW7miWbt9xXyB-12" value="&lt;font style=&quot;font-size: 32px;&quot;&gt;&lt;b&gt;ASR Transcript Editors&lt;/b&gt;&lt;br&gt;&lt;/font&gt;" style="shape=actor;whiteSpace=wrap;html=1;fillColor=#dae8fc;strokeColor=#6c8ebf;strokeWidth=2;verticalAlign=bottom;spacingBottom=18;spacing=13;" vertex="1" parent="1">
          <mxGeometry x="50" y="670" width="250" height="300" as="geometry" />
        </mxCell>
        <mxCell id="3iToGneiW7miWbt9xXyB-13" value="&lt;font&gt;&lt;b&gt;&lt;font style=&quot;font-size: 30px;&quot;&gt;Event notetakers and post processors&lt;/font&gt;&lt;/b&gt;&lt;br&gt;&lt;/font&gt;" style="shape=actor;whiteSpace=wrap;html=1;fillColor=#dae8fc;strokeColor=#6c8ebf;strokeWidth=2;verticalAlign=bottom;spacingBottom=22;spacing=9;" vertex="1" parent="1">
          <mxGeometry x="960" y="120" width="250" height="300" as="geometry" />
        </mxCell>
        <mxCell id="3iToGneiW7miWbt9xXyB-14" value="&lt;font style=&quot;font-size: 32px;&quot;&gt;&lt;b&gt;Timecode Slingers&lt;/b&gt;&lt;br&gt;&lt;/font&gt;" style="shape=actor;whiteSpace=wrap;html=1;fillColor=#dae8fc;strokeColor=#6c8ebf;strokeWidth=2;verticalAlign=bottom;spacingBottom=44;" vertex="1" parent="1">
          <mxGeometry x="960" y="670" width="250" height="300" as="geometry" />
        </mxCell>
        <mxCell id="3iToGneiW7miWbt9xXyB-40" value="&lt;font style=&quot;font-size: 30px;&quot;&gt;Export VTT or text&lt;/font&gt;" style="rounded=1;whiteSpace=wrap;html=1;fillColor=#fff2cc;strokeColor=#d6b656;strokeWidth=2;" vertex="1" parent="1">
          <mxGeometry x="1380" y="242" width="340" height="80" as="geometry" />
        </mxCell>
        <mxCell id="3iToGneiW7miWbt9xXyB-41" value="&lt;font style=&quot;font-size: 30px;&quot;&gt;TIM as viewer&lt;/font&gt;" style="rounded=1;whiteSpace=wrap;html=1;fillColor=#fad7ac;strokeColor=#b46504;strokeWidth=2;" vertex="1" parent="1">
          <mxGeometry x="1380" y="340" width="340" height="80" as="geometry" />
        </mxCell>
        <mxCell id="3iToGneiW7miWbt9xXyB-32" value="&lt;font style=&quot;font-size: 30px;&quot;&gt;Export as XML, VTT or text&lt;/font&gt;" style="rounded=1;whiteSpace=wrap;html=1;fillColor=#fff2cc;strokeColor=#d6b656;strokeWidth=2;" vertex="1" parent="1">
          <mxGeometry x="470" y="880" width="340" height="80" as="geometry" />
        </mxCell>
        <mxCell id="3iToGneiW7miWbt9xXyB-43" value="&lt;font style=&quot;font-size: 30px;&quot;&gt;Import text with timecodes&lt;/font&gt;" style="rounded=1;whiteSpace=wrap;html=1;fillColor=#f5f5f5;strokeColor=#666666;strokeWidth=2;fontColor=#333333;" vertex="1" parent="1">
          <mxGeometry x="1380" y="780" width="340" height="80" as="geometry" />
        </mxCell>
        <mxCell id="3iToGneiW7miWbt9xXyB-44" value="&lt;font style=&quot;font-size: 30px;&quot;&gt;Export as text&lt;/font&gt;" style="rounded=1;whiteSpace=wrap;html=1;fillColor=#fff2cc;strokeColor=#d6b656;strokeWidth=2;" vertex="1" parent="1">
          <mxGeometry x="1380" y="880" width="340" height="80" as="geometry" />
        </mxCell>
        <mxCell id="3iToGneiW7miWbt9xXyB-15" value="&lt;font style=&quot;font-size: 30px;&quot;&gt;TIM Editor&lt;/font&gt;" style="rounded=1;whiteSpace=wrap;html=1;fillColor=#f8cecc;strokeColor=#b85450;strokeWidth=2;" vertex="1" parent="1">
          <mxGeometry x="470" y="120" width="340" height="80" as="geometry" />
        </mxCell>
        <mxCell id="3iToGneiW7miWbt9xXyB-16" value="&lt;font style=&quot;font-size: 30px;&quot;&gt;Transcript Load&lt;/font&gt;" style="rounded=1;whiteSpace=wrap;html=1;fillColor=#d5e8d4;strokeColor=#82b366;strokeWidth=2;" vertex="1" parent="1">
          <mxGeometry x="470" y="220" width="340" height="80" as="geometry" />
        </mxCell>
        <mxCell id="3iToGneiW7miWbt9xXyB-17" value="&lt;font style=&quot;font-size: 30px;&quot;&gt;OHMS.xml export&lt;/font&gt;" style="rounded=1;whiteSpace=wrap;html=1;fillColor=#dae8fc;strokeColor=#6c8ebf;strokeWidth=2;" vertex="1" parent="1">
          <mxGeometry x="470" y="320" width="340" height="80" as="geometry" />
        </mxCell>
        <mxCell id="3iToGneiW7miWbt9xXyB-45" value="&lt;font style=&quot;font-size: 28px;&quot;&gt;e.g. WebVTT&lt;/font&gt;" style="rounded=1;whiteSpace=wrap;html=1;fillColor=#dae8fc;strokeColor=#6c8ebf;strokeWidth=2;" vertex="1" parent="1">
          <mxGeometry x="1690" y="830" width="210" height="70" as="geometry" />
        </mxCell>
        <mxCell id="3iToGneiW7miWbt9xXyB-46" value="&lt;font style=&quot;font-size: 30px;&quot;&gt;TIM Editor&lt;/font&gt;" style="rounded=1;whiteSpace=wrap;html=1;fillColor=#f8cecc;strokeColor=#b85450;strokeWidth=2;" vertex="1" parent="1">
          <mxGeometry x="1380" y="40" width="340" height="80" as="geometry" />
        </mxCell>
        <mxCell id="3iToGneiW7miWbt9xXyB-47" value="&lt;font style=&quot;font-size: 30px;&quot;&gt;Transcript Load&lt;/font&gt;" style="rounded=1;whiteSpace=wrap;html=1;fillColor=#d5e8d4;strokeColor=#82b366;strokeWidth=2;" vertex="1" parent="1">
          <mxGeometry x="1380" y="140" width="340" height="80" as="geometry" />
        </mxCell>
        <mxCell id="3iToGneiW7miWbt9xXyB-48" value="&lt;font style=&quot;font-size: 30px;&quot;&gt;Transcript Load&lt;/font&gt;" style="rounded=1;whiteSpace=wrap;html=1;fillColor=#d5e8d4;strokeColor=#82b366;strokeWidth=2;" vertex="1" parent="1">
          <mxGeometry x="470" y="780" width="340" height="80" as="geometry" />
        </mxCell>
        <mxCell id="3iToGneiW7miWbt9xXyB-49" value="&lt;font style=&quot;font-size: 30px;&quot;&gt;TIM Editor&lt;/font&gt;" style="rounded=1;whiteSpace=wrap;html=1;fillColor=#f8cecc;strokeColor=#b85450;strokeWidth=2;" vertex="1" parent="1">
          <mxGeometry x="470" y="680" width="340" height="80" as="geometry" />
        </mxCell>
        <mxCell id="3iToGneiW7miWbt9xXyB-50" value="&lt;font style=&quot;font-size: 30px;&quot;&gt;TIM Editor&lt;/font&gt;" style="rounded=1;whiteSpace=wrap;html=1;fillColor=#f8cecc;strokeColor=#b85450;strokeWidth=2;" vertex="1" parent="1">
          <mxGeometry x="1380" y="680" width="340" height="80" as="geometry" />
        </mxCell>
        <mxCell id="3iToGneiW7miWbt9xXyB-52" value="" style="endArrow=classic;html=1;rounded=0;exitX=1;exitY=0.75;exitDx=0;exitDy=0;entryX=0;entryY=0.5;entryDx=0;entryDy=0;strokeWidth=4;" edge="1" parent="1" source="3iToGneiW7miWbt9xXyB-3" target="3iToGneiW7miWbt9xXyB-15">
          <mxGeometry width="50" height="50" relative="1" as="geometry">
            <mxPoint x="920" y="660" as="sourcePoint" />
            <mxPoint x="970" y="610" as="targetPoint" />
          </mxGeometry>
        </mxCell>
        <mxCell id="3iToGneiW7miWbt9xXyB-53" value="" style="endArrow=classic;html=1;rounded=0;labelBackgroundColor=default;strokeColor=default;strokeWidth=4;align=center;verticalAlign=middle;fontFamily=Helvetica;fontSize=11;fontColor=default;shape=connector;exitX=1;exitY=0.75;exitDx=0;exitDy=0;entryX=0;entryY=0.5;entryDx=0;entryDy=0;" edge="1" parent="1" source="3iToGneiW7miWbt9xXyB-3" target="3iToGneiW7miWbt9xXyB-16">
          <mxGeometry width="50" height="50" relative="1" as="geometry">
            <mxPoint x="920" y="660" as="sourcePoint" />
            <mxPoint x="970" y="610" as="targetPoint" />
          </mxGeometry>
        </mxCell>
        <mxCell id="3iToGneiW7miWbt9xXyB-54" value="" style="endArrow=classic;html=1;rounded=0;labelBackgroundColor=default;strokeColor=default;strokeWidth=4;align=center;verticalAlign=middle;fontFamily=Helvetica;fontSize=11;fontColor=default;shape=connector;exitX=1;exitY=0.75;exitDx=0;exitDy=0;entryX=0;entryY=0.5;entryDx=0;entryDy=0;" edge="1" parent="1" source="3iToGneiW7miWbt9xXyB-3" target="3iToGneiW7miWbt9xXyB-17">
          <mxGeometry width="50" height="50" relative="1" as="geometry">
            <mxPoint x="920" y="660" as="sourcePoint" />
            <mxPoint x="970" y="610" as="targetPoint" />
          </mxGeometry>
        </mxCell>
        <mxCell id="3iToGneiW7miWbt9xXyB-55" value="" style="endArrow=classic;html=1;rounded=0;labelBackgroundColor=default;strokeColor=default;strokeWidth=4;align=center;verticalAlign=middle;fontFamily=Helvetica;fontSize=11;fontColor=default;shape=connector;entryX=0;entryY=0.5;entryDx=0;entryDy=0;exitX=1;exitY=0.75;exitDx=0;exitDy=0;" edge="1" parent="1" source="3iToGneiW7miWbt9xXyB-13" target="3iToGneiW7miWbt9xXyB-46">
          <mxGeometry width="50" height="50" relative="1" as="geometry">
            <mxPoint x="910" y="660" as="sourcePoint" />
            <mxPoint x="960" y="610" as="targetPoint" />
          </mxGeometry>
        </mxCell>
        <mxCell id="3iToGneiW7miWbt9xXyB-56" value="" style="endArrow=classic;html=1;rounded=0;labelBackgroundColor=default;strokeColor=default;strokeWidth=4;align=center;verticalAlign=middle;fontFamily=Helvetica;fontSize=11;fontColor=default;shape=connector;entryX=0;entryY=0.5;entryDx=0;entryDy=0;exitX=1;exitY=0.75;exitDx=0;exitDy=0;" edge="1" parent="1" source="3iToGneiW7miWbt9xXyB-13" target="3iToGneiW7miWbt9xXyB-47">
          <mxGeometry width="50" height="50" relative="1" as="geometry">
            <mxPoint x="1260" y="350" as="sourcePoint" />
            <mxPoint x="960" y="610" as="targetPoint" />
          </mxGeometry>
        </mxCell>
        <mxCell id="3iToGneiW7miWbt9xXyB-57" value="" style="endArrow=classic;html=1;rounded=0;labelBackgroundColor=default;strokeColor=default;strokeWidth=4;align=center;verticalAlign=middle;fontFamily=Helvetica;fontSize=11;fontColor=default;shape=connector;entryX=0;entryY=0.5;entryDx=0;entryDy=0;exitX=1;exitY=0.75;exitDx=0;exitDy=0;" edge="1" parent="1" source="3iToGneiW7miWbt9xXyB-13" target="3iToGneiW7miWbt9xXyB-40">
          <mxGeometry width="50" height="50" relative="1" as="geometry">
            <mxPoint x="910" y="660" as="sourcePoint" />
            <mxPoint x="960" y="610" as="targetPoint" />
          </mxGeometry>
        </mxCell>
        <mxCell id="3iToGneiW7miWbt9xXyB-58" value="" style="endArrow=classic;html=1;rounded=0;labelBackgroundColor=default;strokeColor=default;strokeWidth=4;align=center;verticalAlign=middle;fontFamily=Helvetica;fontSize=11;fontColor=default;shape=connector;entryX=0;entryY=0.5;entryDx=0;entryDy=0;exitX=1;exitY=0.75;exitDx=0;exitDy=0;" edge="1" parent="1" source="3iToGneiW7miWbt9xXyB-13" target="3iToGneiW7miWbt9xXyB-41">
          <mxGeometry width="50" height="50" relative="1" as="geometry">
            <mxPoint x="1220" y="420" as="sourcePoint" />
            <mxPoint x="1270" y="370" as="targetPoint" />
          </mxGeometry>
        </mxCell>
        <mxCell id="3iToGneiW7miWbt9xXyB-59" value="" style="endArrow=classic;html=1;rounded=0;labelBackgroundColor=default;strokeColor=default;strokeWidth=4;align=center;verticalAlign=middle;fontFamily=Helvetica;fontSize=11;fontColor=default;shape=connector;entryX=0;entryY=0.5;entryDx=0;entryDy=0;exitX=1;exitY=0.75;exitDx=0;exitDy=0;" edge="1" parent="1" source="3iToGneiW7miWbt9xXyB-12" target="3iToGneiW7miWbt9xXyB-49">
          <mxGeometry width="50" height="50" relative="1" as="geometry">
            <mxPoint x="490" y="900" as="sourcePoint" />
            <mxPoint x="540" y="850" as="targetPoint" />
          </mxGeometry>
        </mxCell>
        <mxCell id="3iToGneiW7miWbt9xXyB-60" value="" style="endArrow=classic;html=1;rounded=0;labelBackgroundColor=default;strokeColor=default;strokeWidth=4;align=center;verticalAlign=middle;fontFamily=Helvetica;fontSize=11;fontColor=default;shape=connector;exitX=1;exitY=0.75;exitDx=0;exitDy=0;entryX=0;entryY=0.5;entryDx=0;entryDy=0;" edge="1" parent="1" source="3iToGneiW7miWbt9xXyB-12" target="3iToGneiW7miWbt9xXyB-48">
          <mxGeometry width="50" height="50" relative="1" as="geometry">
            <mxPoint x="490" y="900" as="sourcePoint" />
            <mxPoint x="540" y="850" as="targetPoint" />
          </mxGeometry>
        </mxCell>
        <mxCell id="3iToGneiW7miWbt9xXyB-61" value="" style="endArrow=classic;html=1;rounded=0;labelBackgroundColor=default;strokeColor=default;strokeWidth=4;align=center;verticalAlign=middle;fontFamily=Helvetica;fontSize=11;fontColor=default;shape=connector;exitX=1;exitY=0.75;exitDx=0;exitDy=0;entryX=0;entryY=0.5;entryDx=0;entryDy=0;" edge="1" parent="1" source="3iToGneiW7miWbt9xXyB-12" target="3iToGneiW7miWbt9xXyB-32">
          <mxGeometry width="50" height="50" relative="1" as="geometry">
            <mxPoint x="490" y="900" as="sourcePoint" />
            <mxPoint x="540" y="850" as="targetPoint" />
          </mxGeometry>
        </mxCell>
        <mxCell id="3iToGneiW7miWbt9xXyB-62" value="" style="endArrow=classic;html=1;rounded=0;labelBackgroundColor=default;strokeColor=default;strokeWidth=4;align=center;verticalAlign=middle;fontFamily=Helvetica;fontSize=11;fontColor=default;shape=connector;exitX=1;exitY=0.75;exitDx=0;exitDy=0;entryX=0;entryY=0.5;entryDx=0;entryDy=0;" edge="1" parent="1" source="3iToGneiW7miWbt9xXyB-14" target="3iToGneiW7miWbt9xXyB-50">
          <mxGeometry width="50" height="50" relative="1" as="geometry">
            <mxPoint x="1340" y="870" as="sourcePoint" />
            <mxPoint x="1390" y="820" as="targetPoint" />
          </mxGeometry>
        </mxCell>
        <mxCell id="3iToGneiW7miWbt9xXyB-63" value="" style="endArrow=classic;html=1;rounded=0;labelBackgroundColor=default;strokeColor=default;strokeWidth=4;align=center;verticalAlign=middle;fontFamily=Helvetica;fontSize=11;fontColor=default;shape=connector;exitX=1;exitY=0.75;exitDx=0;exitDy=0;entryX=0;entryY=0.5;entryDx=0;entryDy=0;" edge="1" parent="1" source="3iToGneiW7miWbt9xXyB-14" target="3iToGneiW7miWbt9xXyB-43">
          <mxGeometry width="50" height="50" relative="1" as="geometry">
            <mxPoint x="1340" y="870" as="sourcePoint" />
            <mxPoint x="1320" y="860" as="targetPoint" />
          </mxGeometry>
        </mxCell>
        <mxCell id="3iToGneiW7miWbt9xXyB-64" value="" style="endArrow=classic;html=1;rounded=0;labelBackgroundColor=default;strokeColor=default;strokeWidth=4;align=center;verticalAlign=middle;fontFamily=Helvetica;fontSize=11;fontColor=default;shape=connector;exitX=1;exitY=0.75;exitDx=0;exitDy=0;entryX=0;entryY=0.5;entryDx=0;entryDy=0;" edge="1" parent="1" source="3iToGneiW7miWbt9xXyB-14" target="3iToGneiW7miWbt9xXyB-44">
          <mxGeometry width="50" height="50" relative="1" as="geometry">
            <mxPoint x="1340" y="870" as="sourcePoint" />
            <mxPoint x="1390" y="820" as="targetPoint" />
          </mxGeometry>
        </mxCell>
      </root>
    </mxGraphModel>
  </diagram>
</mxfile>
